<svg width="175" height="131" viewBox="0 0 175 131" fill="none" xmlns="http://www.w3.org/2000/svg">
<path d="M70.792 106.448H64.288V109.136H70.336V112.832H64.288V119H59.368V102.536H71.272L70.792 106.448ZM78.0286 110.504V114.296H71.9326V110.504H78.0286ZM87.2581 102.536C88.5701 102.536 89.7701 102.864 90.8581 103.52C91.9621 104.16 92.8341 105.032 93.4741 106.136C94.1301 107.224 94.4581 108.424 94.4581 109.736V111.8C94.4581 113.112 94.1301 114.32 93.4741 115.424C92.8341 116.512 91.9621 117.384 90.8581 118.04C89.7701 118.68 88.5701 119 87.2581 119H79.8421V102.536H87.2581ZM84.9301 115.184H86.7781C87.4501 115.184 88.0181 114.952 88.4821 114.488C88.9461 114.024 89.1781 113.456 89.1781 112.784V108.68C89.1781 108.008 88.9461 107.44 88.4821 106.976C88.0181 106.512 87.4501 106.28 86.7781 106.28H84.9301V115.184ZM102.265 106.496C103.497 106.496 104.553 106.736 105.433 107.216C106.329 107.68 107.009 108.328 107.473 109.16C107.953 109.992 108.193 110.944 108.193 112.016V113.504H100.201V114.656C100.201 115.2 100.369 115.616 100.705 115.904C101.057 116.192 101.505 116.336 102.049 116.336C102.609 116.336 103.033 116.168 103.321 115.832C103.625 115.48 103.777 115 103.777 114.392H108.169C108.169 115.304 107.929 116.128 107.449 116.864C106.985 117.6 106.297 118.184 105.385 118.616C104.489 119.032 103.425 119.24 102.193 119.24H101.833C100.553 119.24 99.401 119.008 98.377 118.544C97.369 118.064 96.569 117.376 95.977 116.48C95.401 115.568 95.113 114.488 95.113 113.24V112.496C95.113 111.248 95.385 110.176 95.929 109.28C96.489 108.368 97.265 107.68 98.257 107.216C99.249 106.736 100.385 106.496 101.665 106.496H102.265ZM101.857 109.4C101.393 109.4 101.001 109.568 100.681 109.904C100.361 110.224 100.201 110.616 100.201 111.08V111.416H103.513V111.08C103.513 110.616 103.353 110.224 103.033 109.904C102.713 109.568 102.321 109.4 101.857 109.4ZM121.599 106.736L117.591 119H112.095L108.135 106.736H113.199L114.999 113.744H115.167L116.967 106.736H121.599Z" fill="black"/>
<path d="M75.6224 15.4001C81.6271 7.61461 93.3729 7.61462 99.3776 15.4001L144.643 74.0891C152.249 83.9507 145.219 98.25 132.765 98.25H42.2349C29.781 98.25 22.7514 83.9507 30.3573 74.0891L75.6224 15.4001Z" fill="#880101"/>
<rect x="67" y="57" width="40" height="33" rx="16.5" fill="white"/>
</svg>
